HIERARCHY
ROOT Hips
{
	OFFSET 0.000000 0.000000 0.000000
	CHANNELS 6 Xposition Yposition Zposition Zrotation Yrotation Xrotation 
	JOINT LHipJoint
	{
		OFFSET 0.000000 0.000000 0.000000
		CHANNELS 3 Zrotation Yrotation Xrotation
		JOINT LeftUpLeg
		{
			OFFSET 1.363060 -1.794630 0.839290
			CHANNELS 3 Zrotation Yrotation Xrotation
			JOINT LeftLeg
			{
				OFFSET 2.448110 -6.726130 0.000000
				CHANNELS 3 Zrotation Yrotation Xrotation
				JOINT LeftFoot
				{
					OFFSET 2.562200 -7.039590 0.000000
					CHANNELS 3 Zrotation Yrotation Xrotation
					JOINT LeftToeBase
					{
						OFFSET 0.157640 -0.433110 2.322550
						CHANNELS 3 Zrotation Yrotation Xrotation
						End Site
						{
							OFFSET 0.000000 0.000000 0.000000
						}
					}
				}
			}
		}
	}
	JOINT RHipJoint
	{
		OFFSET 0.000000 0.000000 0.000000
		CHANNELS 3 Zrotation Yrotation Xrotation
		JOINT RightUpLeg
		{
			OFFSET -1.305520 -1.794630 0.839290
			CHANNELS 3 Zrotation Yrotation Xrotation
			JOINT RightLeg
			{
				OFFSET -2.542530 -6.985550 0.000000
				CHANNELS 3 Zrotation Yrotation Xrotation
				JOINT RightFoot
				{
					OFFSET -2.568260 -7.056230 0.000000
					CHANNELS 3 Zrotation Yrotation Xrotation
					JOINT RightToeBase
					{
						OFFSET -0.164730 -0.452590 2.363150
						CHANNELS 3 Zrotation Yrotation Xrotation
						End Site
						{
							OFFSET 0.000000 0.000000 0.000000
						}
					}
				}
			}
		}
	}
	JOINT LowerBack
	{
		OFFSET 0.000000 0.000000 0.000000
		CHANNELS 3 Zrotation Yrotation Xrotation
		JOINT Spine
		{
			OFFSET 0.028270 2.035590 -0.193380
			CHANNELS 3 Zrotation Yrotation Xrotation
			JOINT Spine1
			{
				OFFSET 0.056720 2.048850 -0.042750
				CHANNELS 3 Zrotation Yrotation Xrotation
				JOINT Neck
				{
					OFFSET 0.000000 0.000000 0.000000
					CHANNELS 3 Zrotation Yrotation Xrotation
					JOINT Neck1
					{
						OFFSET -0.054170 1.746240 0.172020
						CHANNELS 3 Zrotation Yrotation Xrotation
						JOINT Head
						{
							OFFSET 0.104070 1.761360 -0.123970
							CHANNELS 3 Zrotation Yrotation Xrotation
							End Site
							{
								OFFSET 0.000000 0.000000 0.000000
							}
						}
					}
				}
				JOINT LeftShoulder
				{
					OFFSET 0.000000 0.000000 0.000000
					CHANNELS 3 Zrotation Yrotation Xrotation
					JOINT LeftArm
					{
						OFFSET 3.362410 1.200890 -0.311210
						CHANNELS 3 Zrotation Yrotation Xrotation
						JOINT LeftForeArm
						{
							OFFSET 4.983000 -0.000000 -0.000000
							CHANNELS 3 Zrotation Yrotation Xrotation
							JOINT LeftHand
							{
								OFFSET 3.483560 -0.000000 -0.000000
								CHANNELS 3 Zrotation Yrotation Xrotation
								JOINT LeftFingerBase
								{
									OFFSET 0.000000 0.000000 0.000000
									CHANNELS 3 Zrotation Yrotation Xrotation
									JOINT LeftHandIndex1
									{
										OFFSET 0.715260 -0.000000 -0.000000
										CHANNELS 3 Zrotation Yrotation Xrotation
										End Site
										{
											OFFSET 0.000000 0.000000 0.000000
										}
									}
								}
								JOINT LThumb
								{
									OFFSET 0.000000 0.000000 0.000000
									CHANNELS 3 Zrotation Yrotation Xrotation
									End Site
									{
										OFFSET 0.000000 0.000000 0.000000
									}
								}
							}
						}
					}
				}
				JOINT RightShoulder
				{
					OFFSET 0.000000 0.000000 0.000000
					CHANNELS 3 Zrotation Yrotation Xrotation
					JOINT RightArm
					{
						OFFSET -3.136600 1.374050 -0.404650
						CHANNELS 3 Zrotation Yrotation Xrotation
						JOINT RightForeArm
						{
							OFFSET -5.241900 -0.000000 -0.000000
							CHANNELS 3 Zrotation Yrotation Xrotation
							JOINT RightHand
							{
								OFFSET -3.444170 -0.000000 -0.000000
								CHANNELS 3 Zrotation Yrotation Xrotation
								JOINT RightFingerBase
								{
									OFFSET 0.000000 0.000000 0.000000
									CHANNELS 3 Zrotation Yrotation Xrotation
									JOINT RightHandIndex1
									{
										OFFSET -0.622530 -0.000000 -0.000000
										CHANNELS 3 Zrotation Yrotation Xrotation
										End Site
										{
											OFFSET 0.000000 0.000000 0.000000
										}
									}
								}
								JOINT RThumb
								{
									OFFSET 0.000000 0.000000 0.000000
									CHANNELS 3 Zrotation Yrotation Xrotation
									End Site
									{
										OFFSET 0.000000 0.000000 0.000000
									}
								}
							}
						}
					}
				}
			}
		}
	}
}
MOTION
Frames: 8
Frame Time: 0.016667
0.069394 17.212182 0.069394 -1.159223 -2.253537 3.130774 -9.833184 3.143452 11.258837 8.708218 -17.635302 -16.431231 12.780027 -24.563173 -34.507242 -0.894699 -14.992874 43.371811 0.000000 0.000000 0.000000 1.330892 -6.004135 -8.494297 17.596821 -3.746813 2.486300 -2.878951 -11.201243 20.977510 0.565772 -1.213756 -12.085189 0.000000 0.000000 0.000000 8.160317 4.939175 0.984474 -12.983298 5.126200 24.845811 -4.412451 2.319420 -26.040768 17.516461 -3.146987 0.236553 -3.645167 -0.428517 2.686063 0.000000 0.000000 0.000000 10.761110 -2.193430 14.868503 -72.344136 -3.239359 14.788975 1.077704 -84.962348 -1.246369 14.184071 -24.687591 -0.760048 15.112662 -24.283200 0.000000 0.000000 0.000000 0.000000 0.000000 0.000000 0.000000 -29.885684 -5.315272 -36.590074 84.387245 -25.200075 46.364844 165.767227 81.317099 -178.209149 40.769436 -74.899679 -1.749098 50.054725 -64.891679 0.000000 0.000000 0.000000 0.000000 0.000000 0.000000 0.000000 
0.003591 17.188743 0.152781 -1.979519 -1.642654 5.222825 -9.634715 0.528446 10.406294 9.458315 -17.119301 -15.227532 20.331475 -27.674472 -36.640944 1.808725 -9.748105 44.562029 0.000000 0.000000 0.000000 3.207051 -4.399031 -9.284100 15.749687 -4.406974 1.779001 -0.521112 -11.800403 19.490604 0.469269 -0.784350 -14.461372 0.000000 0.000000 0.000000 5.527551 6.193694 5.648462 -9.414696 5.844630 26.687289 3.022954 5.579865 -30.845487 13.851440 -4.116746 -13.476932 -6.929722 -0.640734 1.915026 0.000000 0.000000 0.000000 5.330708 5.558443 10.121060 -72.253739 -2.515442 26.061726 -17.398680 -79.827767 0.976479 -3.324580 -5.192098 0.490162 -3.378523 -5.203658 0.000000 0.000000 0.000000 0.000000 0.000000 0.000000 0.000000 -12.694569 -6.298946 -16.430195 79.577454 -18.960678 14.143313 97.138743 45.636134 167.552363 40.911236 -73.124942 -7.641017 58.687770 -61.221008 -0.000000 0.000000 0.000000 0.000000 0.000000 0.000000 0.000000 
-0.004382 17.206776 0.291025 -0.648165 -6.372285 4.777543 -11.556191 0.667519 12.285358 10.555644 -15.530157 -14.865546 29.796946 -29.930000 -38.925393 4.835010 -3.363344 47.239097 0.000000 0.000000 0.000000 3.934943 -3.643429 -7.011429 12.697116 -2.804392 0.452753 1.026696 -11.000567 19.293706 0.250113 0.650220 -15.846393 0.000000 0.000000 0.000000 8.209194 2.061987 1.029881 -10.443944 1.630342 29.048936 -2.716608 0.777466 -20.913038 11.799296 -4.241536 -13.765099 -6.017929 -0.633366 -0.735618 0.000000 0.000000 0.000000 5.125816 16.733356 4.892826 -66.058155 -2.839173 22.116179 -22.920635 -79.402176 1.415820 -9.703879 10.263620 0.706198 -9.735844 10.234747 0.000000 0.000000 0.000000 0.000000 0.000000 0.000000 0.000000 -18.239487 -11.521263 0.042787 85.955752 5.587768 -1.427920 -63.172153 55.372385 -8.100276 40.446760 -76.527925 -5.891383 56.812376 -64.411051 -0.000000 0.000000 0.000000 0.000000 0.000000 0.000000 0.000000 
0.003341 17.235824 0.441776 -0.992097 -2.021393 4.486466 -11.829925 0.144329 11.439879 9.445697 -15.779957 -14.418676 25.964170 -29.709541 -38.792764 2.972258 -6.821016 45.961888 0.000000 0.000000 0.000000 3.838651 -1.970497 -8.684719 12.294020 -5.820313 3.616969 2.052822 -12.273046 17.723388 0.490440 -1.449942 -13.837058 0.000000 0.000000 0.000000 8.020769 3.502839 4.029315 -9.406021 3.747698 31.426101 2.442954 2.840703 -28.058798 10.833106 -4.490036 -16.423505 -7.281582 -0.703248 -0.506590 0.000000 0.000000 0.000000 2.674968 13.234492 5.737510 -68.293033 -3.027008 24.840202 -23.392939 -78.723311 1.284884 -9.401514 9.096717 0.640615 -9.438872 9.066344 0.000000 0.000000 0.000000 0.000000 0.000000 0.000000 0.000000 -8.800975 -8.905730 -3.415305 76.207548 1.275810 3.750001 -45.775255 43.952097 -2.285841 40.298288 -83.099063 -4.282988 55.982512 -69.909645 -0.000000 0.000000 0.000000 0.000000 0.000000 0.000000 0.000000 
0.012803 17.265896 0.591234 -1.485755 0.675681 3.590324 -11.959592 0.295045 11.122885 8.489426 -15.707381 -13.975633 22.639327 -29.247719 -38.467701 1.630368 -9.922691 44.541957 0.000000 0.000000 0.000000 3.897581 0.112798 -10.028620 11.762043 -8.437796 6.946722 2.850238 -13.254579 16.424970 0.729058 -3.434706 -11.413424 0.000000 0.000000 0.000000 7.448021 2.696415 4.855626 -8.679457 3.124421 31.606930 3.674665 0.781587 -27.668215 14.165887 -3.624274 -15.066938 -6.194709 -0.496241 -1.417192 0.000000 0.000000 0.000000 3.676859 12.960295 5.558717 -68.849968 -3.522274 24.405861 -22.915086 -78.892369 1.200362 -8.824371 7.666026 0.599170 -8.860897 7.640468 0.000000 0.000000 0.000000 0.000000 0.000000 0.000000 0.000000 -12.184810 -4.963621 -4.905107 82.837205 -13.582840 24.613634 -74.879446 60.985170 -2.470517 33.606261 -83.522584 -5.698731 51.066125 -70.118547 -0.000000 0.000000 0.000000 0.000000 0.000000 0.000000 0.000000 
0.032068 17.301984 0.747346 -1.970671 0.178335 3.802197 -11.231312 1.555950 9.702047 6.609119 -15.322728 -14.291991 17.662970 -27.114840 -37.686957 0.171579 -14.243479 42.381383 0.000000 0.000000 0.000000 3.923285 3.416632 -12.451456 11.490505 -10.289130 10.052582 2.784825 -13.976690 16.004098 1.009204 -5.354668 -8.312646 0.000000 0.000000 0.000000 6.278495 -3.491726 7.215137 -10.346919 -3.673732 26.408031 3.738073 -5.352427 -26.978846 18.773060 -4.194568 -11.482464 -5.035241 -0.570901 0.580397 0.000000 0.000000 0.000000 11.343545 28.701038 6.228932 -69.690283 3.063830 23.468554 -20.973580 -80.644106 1.076189 -6.702133 2.466406 0.539339 -6.740157 2.454531 0.000000 0.000000 0.000000 0.000000 0.000000 0.000000 0.000000 -27.466203 -21.094013 -7.733358 96.714963 -2.428582 -21.909261 43.509746 77.829676 175.868657 18.291126 -70.128804 -10.089543 38.932666 -58.255305 0.000002 0.000000 0.000000 0.000000 0.000000 0.000000 0.000000 
0.053102 17.338299 0.902104 -1.995489 4.154961 2.828629 -10.838010 1.555269 8.856587 4.733746 -15.793813 -13.475462 12.423142 -26.089941 -35.878396 -1.559773 -18.116146 40.819838 0.000000 0.000000 0.000000 3.184067 4.146287 -13.506089 11.378409 -12.625507 12.786646 3.286705 -15.067532 15.133551 1.254943 -7.664656 -5.122432 0.000000 0.000000 0.000000 6.410235 -0.699921 8.596540 -9.677418 -1.701966 21.064841 4.071162 -1.978404 -32.840165 17.355046 -4.526219 -2.340380 -6.528068 -0.809400 4.696998 0.000000 0.000000 0.000000 10.244804 15.407410 12.540664 -70.602263 4.874505 24.305943 -19.367799 -79.812773 0.989501 -4.414237 -2.449406 0.496557 -4.462417 -2.459530 0.000000 0.000000 0.000000 0.000000 0.000000 0.000000 0.000000 -21.797618 -15.696560 -27.530590 128.429367 24.027796 -26.858420 106.559235 34.104243 -154.703397 4.314595 -89.557334 -7.799093 25.241938 -80.275548 0.000000 0.000000 0.000000 0.000000 0.000000 0.000000 0.000000 
0.068212 17.369505 1.048424 -1.411797 7.309458 -0.239134 -10.568645 1.813126 9.602564 3.269157 -15.937879 -11.648146 9.075236 -25.333663 -34.404267 -2.681809 -20.744841 40.053703 0.000000 0.000000 0.000000 2.548224 3.459740 -11.960940 10.893294 -13.961669 14.820062 3.389424 -15.795795 14.951364 1.440531 -9.256742 -2.702412 0.000000 0.000000 0.000000 6.832194 3.430668 4.093643 -10.045546 3.415471 25.162770 4.236957 1.629663 -26.402984 16.854043 -3.562309 -3.589553 -9.028329 -0.786719 4.738975 0.000000 0.000000 0.000000 9.068364 0.238759 12.188637 -72.685462 -1.224458 22.313672 -17.735881 -77.687351 0.866567 -2.490984 -5.119964 0.435031 -2.537429 -5.130372 0.000000 0.000000 0.000000 0.000000 0.000000 0.000000 0.000000 -18.510859 17.260496 -30.025303 102.529749 -19.191943 84.618833 -37.166642 87.812221 40.837538 -146.442349 -77.931557 -157.465842 -156.550111 -76.256414 179.999999 0.000000 0.000000 0.000000 0.000000 0.000000 0.000000 
